<?xml version="1.0" standalone="no"?>
<!DOCTYPE svg PUBLIC "-//W3C//DTD SVG 20010904//EN"
 "http://www.w3.org/TR/2001/REC-SVG-20010904/DTD/svg10.dtd">
<svg version="1.0" xmlns="http://www.w3.org/2000/svg"
 width="78.000000pt" height="78.000000pt" viewBox="0 0 78.000000 78.000000"
 preserveAspectRatio="xMidYMid meet">
<metadata>
Created by potrace 1.14, written by Peter Selinger 2001-2017
</metadata>
<g transform="translate(0.000000,78.000000) scale(0.100000,-0.100000)"
fill="#000000" stroke="none">
<path d="M32 768 c-17 -17 -17 -579 0 -596 15 -15 318 -17 318 -2 0 6 -15 10
-32 11 -18 0 -85 1 -148 2 l-115 2 -3 279 c-1 175 1 282 7 286 6 3 133 6 283
5 l273 0 3 -213 c2 -179 5 -212 17 -212 13 0 15 32 15 213 0 152 -3 216 -12
225 -17 17 -589 17 -606 0z"/>
<path d="M172 668 c-28 -28 -3 -88 37 -88 20 0 34 14 44 43 4 11 1 17 -8 17
-8 0 -15 -7 -15 -15 0 -16 -35 -21 -44 -6 -9 14 4 41 20 41 8 0 14 5 14 10 0
14 -33 13 -48 -2z"/>
<path d="M330 650 c0 -10 14 -12 95 -12 68 0 75 1 75 12 0 6 -35 10 -85 10
-50 0 -85 -4 -85 -10z"/>
<path d="M330 600 c0 -12 -3 -12 105 -14 96 -2 118 1 109 15 -7 13 -214 12
-214 -1z"/>
<path d="M176 524 c-33 -32 -14 -84 30 -84 23 0 57 37 48 52 -8 13 -24 9 -24
-6 0 -16 -19 -25 -37 -19 -20 7 -15 31 7 45 11 7 20 16 20 20 0 14 -28 9 -44
-8z"/>
<path d="M336 512 c-3 -6 0 -12 7 -14 22 -8 87 -3 90 7 3 13 -89 19 -97 7z"/>
<path d="M516 497 c-15 -11 -19 -29 -20 -103 -2 -78 -5 -94 -24 -114 -33 -35
-35 -53 -16 -138 27 -124 50 -143 164 -140 119 2 140 28 140 170 0 83 -2 95
-20 106 -12 7 -25 10 -31 6 -5 -3 -16 0 -24 6 -8 7 -24 10 -35 7 -11 -3 -23
-1 -26 4 -3 5 -14 9 -25 9 -17 0 -19 8 -19 84 0 64 -4 88 -16 100 -19 19 -25
20 -48 3z m40 -127 c1 -58 2 -111 3 -117 2 -21 21 -15 21 6 0 20 17 37 26 28
6 -5 12 -32 13 -55 1 -20 21 -3 21 18 0 10 7 20 15 23 10 5 16 -4 21 -28 7
-41 24 -47 24 -9 0 19 4 25 18 22 14 -3 17 -16 18 -83 3 -127 -12 -145 -120
-146 -107 -1 -111 3 -140 130 -10 44 -12 70 -5 83 12 22 27 24 25 2 0 -9 5
-19 12 -21 9 -4 12 26 12 127 0 120 2 131 18 128 15 -3 17 -17 18 -108z"/>
<path d="M333 456 c5 -14 97 -15 97 -1 0 6 -23 11 -50 11 -34 1 -50 -2 -47
-10z"/>
<path d="M177 382 c-23 -25 -21 -58 4 -75 26 -19 54 -11 67 18 14 30 -3 44
-18 15 -14 -26 -36 -26 -43 0 -3 14 1 24 14 31 11 5 17 14 14 20 -9 14 -20 11
-38 -9z"/>
<path d="M335 369 c-4 -5 0 -12 8 -15 23 -8 92 0 90 11 -4 13 -91 17 -98 4z"/>
<path d="M335 322 c-14 -14 -1 -22 35 -22 22 0 40 5 40 10 0 6 -3 10 -7 11
-36 5 -64 5 -68 1z"/>
</g>
</svg>
